<svg width="220" height="40" viewBox="0 0 220 40" fill="none" xmlns="http://www.w3.org/2000/svg">
<g clip-path="url(#clip0_7377_4072)">
<path d="M71.1015 14.7607H73.6969L75.4272 21.476H75.4554L77.7123 14.7607H79.9316L82.1791 21.6582H82.2073L84.0222 14.7607H86.4389L83.2793 25.2391H81.1541L78.7749 17.9863H78.7467L76.3582 25.2391H74.3082L71.1015 14.7607Z" fill="white"/>
<path d="M92.0906 14.7607H94.4698V18.6696H99.0964V14.7607H101.476V25.2391H99.0964V20.7106H94.4698V25.2391H92.0906V14.7607Z" fill="white"/>
<path d="M108.227 14.7607H110.606V25.2391H108.227V14.7607Z" fill="white"/>
<path d="M117.368 14.7607H120.941C121.806 14.7607 122.624 14.8519 123.405 15.0432C124.185 15.2345 124.863 15.5352 125.446 15.9544C126.029 16.3735 126.489 16.9202 126.828 17.5945C127.166 18.2687 127.336 19.0796 127.336 20.0364C127.336 20.8837 127.166 21.6309 126.837 22.2778C126.508 22.9248 126.057 23.4623 125.502 23.9088C124.938 24.3462 124.298 24.6833 123.565 24.9111C122.831 25.1389 122.06 25.2482 121.261 25.2482H117.368V14.7607ZM119.747 23.107H120.988C121.534 23.107 122.051 23.0523 122.521 22.943C122.991 22.8336 123.405 22.6514 123.753 22.4054C124.101 22.1503 124.374 21.8222 124.571 21.4122C124.768 21.0022 124.872 20.5011 124.872 19.9088C124.872 19.3986 124.768 18.9521 124.571 18.5694C124.374 18.1867 124.101 17.8769 123.772 17.6309C123.433 17.3849 123.038 17.2027 122.587 17.0751C122.135 16.9475 121.656 16.8929 121.157 16.8929H119.756L119.747 23.107Z" fill="white"/>
<path d="M133.627 14.7607H140.971V16.8929H136.006V18.8427H140.698V20.9749H136.006V23.107H141.244V25.2391H133.627V14.7607Z" fill="white"/>
<path d="M157.531 24.5011C156.826 24.8565 156.092 25.1116 155.331 25.2665C154.569 25.4214 153.788 25.5034 152.998 25.5034C152.152 25.5034 151.372 25.3759 150.657 25.1207C149.942 24.8656 149.331 24.5011 148.804 24.0182C148.287 23.5353 147.883 22.9613 147.591 22.2779C147.3 21.5945 147.159 20.8383 147.159 20C147.159 19.1617 147.3 18.4055 147.591 17.7221C147.883 17.0387 148.287 16.4647 148.804 15.9818C149.322 15.4989 149.942 15.1344 150.657 14.8793C151.372 14.6241 152.152 14.4966 152.998 14.4966C153.864 14.4966 154.663 14.5968 155.387 14.7973C156.111 14.9977 156.751 15.344 157.305 15.836L155.622 17.6128C155.293 17.2847 154.926 17.0387 154.522 16.8747C154.117 16.7107 153.61 16.6196 152.998 16.6196C152.491 16.6196 152.03 16.7016 151.616 16.8747C151.202 17.0478 150.854 17.2756 150.553 17.5763C150.262 17.877 150.027 18.2323 149.876 18.6515C149.717 19.0615 149.641 19.5171 149.641 20C149.641 20.492 149.717 20.9476 149.876 21.3576C150.036 21.7677 150.262 22.123 150.553 22.4237C150.845 22.7244 151.202 22.9613 151.616 23.1253C152.03 23.2893 152.491 23.3804 152.998 23.3804C153.516 23.3804 153.967 23.3257 154.343 23.2073C154.719 23.0979 155.02 22.9795 155.246 22.861V21.1572H153.309V19.0251H157.54V24.5011H157.531V24.5011Z" fill="white"/>
<path d="M164.208 14.7607H168.392C168.947 14.7607 169.464 14.8154 169.963 14.9156C170.461 15.0159 170.894 15.189 171.26 15.435C171.637 15.681 171.928 15.9999 172.144 16.4099C172.361 16.82 172.474 17.3302 172.474 17.9407C172.474 18.6787 172.276 19.3074 171.881 19.8268C171.486 20.3462 170.903 20.6742 170.141 20.8109L172.887 25.2391H170.029L167.772 21.0478H166.596V25.2391H164.217L164.208 14.7607ZM166.587 19.0979H167.988C168.204 19.0979 168.43 19.0888 168.665 19.0796C168.9 19.0614 169.116 19.0159 169.314 18.943C169.511 18.8701 169.671 18.7516 169.793 18.5967C169.925 18.4418 169.982 18.214 169.982 17.9316C169.982 17.6674 169.925 17.4578 169.812 17.2938C169.699 17.1389 169.558 17.0113 169.389 16.9293C169.22 16.8473 169.013 16.7926 168.797 16.7562C168.571 16.7289 168.355 16.7106 168.138 16.7106H166.577V19.0979H166.587V19.0979Z" fill="white"/>
<path d="M178.106 20C178.106 19.1617 178.247 18.4055 178.539 17.7221C178.83 17.0387 179.235 16.4647 179.752 15.9818C180.269 15.4989 180.89 15.1344 181.604 14.8793C182.319 14.6241 183.1 14.4966 183.946 14.4966C184.792 14.4966 185.573 14.6241 186.278 14.8793C186.993 15.1344 187.604 15.4989 188.131 15.9818C188.648 16.4647 189.052 17.0387 189.344 17.7221C189.635 18.4055 189.776 19.1617 189.776 20C189.776 20.8383 189.635 21.5945 189.344 22.2779C189.052 22.9613 188.648 23.5353 188.131 24.0182C187.613 24.5011 186.993 24.8656 186.278 25.1207C185.563 25.3759 184.783 25.5034 183.946 25.5034C183.1 25.5034 182.319 25.3759 181.604 25.1207C180.89 24.8656 180.279 24.5011 179.752 24.0182C179.235 23.5353 178.83 22.9613 178.539 22.2779C178.247 21.5945 178.106 20.8383 178.106 20ZM180.58 20C180.58 20.492 180.655 20.9476 180.815 21.3576C180.974 21.7677 181.2 22.123 181.492 22.4237C181.783 22.7244 182.141 22.9613 182.554 23.1253C182.968 23.2893 183.429 23.3804 183.937 23.3804C184.444 23.3804 184.905 23.2984 185.319 23.1253C185.733 22.9613 186.081 22.7244 186.382 22.4237C186.673 22.123 186.908 21.7677 187.059 21.3576C187.219 20.9476 187.294 20.5011 187.294 20C187.294 19.5171 187.219 19.0706 187.059 18.6515C186.899 18.2415 186.673 17.877 186.382 17.5763C186.09 17.2756 185.733 17.0387 185.319 16.8747C184.905 16.7107 184.444 16.6196 183.937 16.6196C183.429 16.6196 182.968 16.7016 182.554 16.8747C182.141 17.0387 181.793 17.2756 181.492 17.5763C181.2 17.877 180.965 18.2323 180.815 18.6515C180.655 19.0706 180.58 19.5171 180.58 20Z" fill="white"/>
<path d="M205.095 21.1935C205.095 21.8131 205.001 22.3872 204.804 22.9065C204.606 23.4259 204.324 23.8815 203.938 24.2642C203.553 24.6468 203.083 24.9475 202.509 25.1662C201.935 25.3849 201.277 25.4942 200.534 25.4942C199.782 25.4942 199.114 25.3849 198.55 25.1662C197.977 24.9475 197.506 24.6468 197.121 24.2642C196.735 23.8815 196.453 23.4259 196.256 22.9065C196.058 22.3872 195.964 21.8131 195.964 21.1935V14.7607H198.343V21.1115C198.343 21.4396 198.4 21.7402 198.503 22.0136C198.607 22.2869 198.757 22.533 198.955 22.7334C199.152 22.9339 199.378 23.0979 199.65 23.2072C199.923 23.3165 200.215 23.3803 200.525 23.3803C200.845 23.3803 201.127 23.3257 201.399 23.2072C201.663 23.0979 201.898 22.9339 202.086 22.7334C202.283 22.533 202.434 22.2961 202.537 22.0136C202.641 21.7402 202.697 21.4396 202.697 21.1115V14.7607H205.076V21.1935H205.095Z" fill="white"/>
<path d="M211.875 14.7607H215.891C216.455 14.7607 216.981 14.8063 217.48 14.9065C217.978 15.0068 218.411 15.1799 218.787 15.4168C219.154 15.6628 219.455 15.9817 219.671 16.3917C219.887 16.8017 220 17.3211 220 17.9407C220 18.5512 219.897 19.0614 219.69 19.4806C219.483 19.8906 219.21 20.2277 218.853 20.4737C218.495 20.7197 218.072 20.8929 217.583 21.0022C217.094 21.1024 216.568 21.1571 215.994 21.1571H214.254V25.2391H211.875V14.7607ZM214.254 19.1981H215.844C216.06 19.1981 216.267 19.1799 216.464 19.1343C216.662 19.0979 216.84 19.025 217 18.9339C217.16 18.8427 217.282 18.7152 217.386 18.5512C217.48 18.3872 217.527 18.1867 217.527 17.9407C217.527 17.6765 217.461 17.4578 217.339 17.2938C217.216 17.1298 217.047 17.0022 216.85 16.9202C216.652 16.8291 216.427 16.7744 216.182 16.7471C215.938 16.7197 215.702 16.7106 215.477 16.7106H214.254V19.1981Z" fill="white"/>
<path d="M6.87412 19.3164L6.3193 18.5784C6.93994 19.444 6.93054 20.8016 6.29109 21.649L0.488993 29.2299C0.17867 29.6399 0 30.2048 0 30.7879V37.7948C0 39.7538 1.79611 40.7378 2.83992 39.3529L16.3155 21.649C16.5129 21.3847 16.6446 21.0658 16.7198 20.7378H9.90212C8.71725 20.7378 7.60761 20.2094 6.87412 19.3164Z" fill="#FFD103"/>
<path d="M16.3155 18.5147L2.83993 0.646805C1.78671 -0.738161 0 0.245894 0 2.20489V9.29373C0 9.87687 0.178671 10.4418 0.479591 10.8518L0.686472 11.1252L6.27229 18.5238L6.3193 18.5785L6.87412 19.3165C7.60762 20.2094 8.71725 20.7379 9.90212 20.7379H16.7198C16.8985 19.9817 16.7668 19.1161 16.3155 18.5147Z" fill="#015EB5"/>
<path d="M50.0936 19.3164L50.6484 18.5784C50.0278 19.444 50.0372 20.8016 50.6767 21.649L56.4787 29.2299C56.7891 29.6399 56.9677 30.2048 56.9677 30.7879V37.7948C56.9677 39.7538 55.1716 40.7378 54.1278 39.3529L40.6523 21.649C40.4548 21.3847 40.3232 21.0658 40.2479 20.7378H47.0656C48.2505 20.7378 49.3601 20.2094 50.0936 19.3164Z" fill="#FFD103"/>
<path d="M40.6522 18.5147L54.1278 0.646805C55.181 -0.738161 56.9677 0.245894 56.9677 2.20489V9.29373C56.9677 9.87687 56.789 10.4418 56.4881 10.8518L56.2812 11.1252L50.6954 18.5238L50.6484 18.5785L50.0936 19.3165C49.3601 20.2094 48.2505 20.7379 47.0656 20.7379H40.2479C40.0692 19.9817 40.2009 19.1161 40.6522 18.5147Z" fill="#015EB5"/>
<path d="M7.95557 39.9999H16.259C17.4815 39.9999 18.6382 39.435 19.3623 38.4783L31.3614 22.6696L32.819 20.7471H22.6724L7.95557 39.9999Z" fill="#FFD103"/>
<path d="M31.9162 11.1799C30.7314 11.1799 29.6217 11.7084 28.8882 12.6013L22.6724 20.7471H32.819L40.0881 11.1799H31.9162Z" fill="#015EB5"/>
</g>
<defs>
<clipPath id="clip0_7377_4072">
<rect width="220" height="40" fill="white"/>
</clipPath>
</defs>
</svg>
